<svg width="313" height="204" viewBox="0 0 313 204" fill="none" xmlns="http://www.w3.org/2000/svg">
<path d="M152.064 2.57485C163.287 1.29222 177.929 5.48837 186.705 12.5725C188.602 14.1035 192.959 18.5058 194.957 18.9769C196.028 18.5303 199.278 13.6701 200.691 12.2249C207.951 4.79855 218.271 6.0816 227.959 5.92347C236.31 5.78714 247.002 5.16134 255.432 6.49505C263.261 7.73406 273.286 13.9031 278.647 19.6116C288.635 29.7323 292.977 42.6343 292.493 56.7308C292.179 71.2768 287.634 83.6818 276.777 93.7209C263.482 106.019 251.893 106.515 235.037 106.233C234.74 109.973 234.727 113.927 234.77 117.674C234.849 124.334 235.193 129.902 230.668 135.355C227.76 138.859 223.389 141.437 218.797 141.616C212.479 141.762 207.206 142.414 202.113 138.124C194.426 131.648 195.142 123.399 195.108 114.211C195.089 109.078 195.182 103.564 194.745 98.3523C194.357 97.7968 194.053 97.1766 193.452 96.9938C192.672 97.4033 188.761 100.841 187.84 101.572C174.942 111.798 161.095 113.581 145.108 111.727C131.605 110.601 117.857 100.033 110.464 89.1937C109.69 88.0603 109.267 86.0559 108.14 85.5086C106.998 86.0678 106.637 87.7169 106.103 88.8624C105.317 90.5358 104.365 92.1264 103.261 93.6112C101.376 96.1687 99.1184 98.4315 96.5623 100.326C88.2528 106.51 78.2606 108.65 68.1213 108.495C65.4884 108.455 62.6307 108.702 60.0011 108.318C60.3742 114.409 60.2035 122.062 60.1083 128.141C59.9168 140.394 47.2064 144.891 36.6834 143.344C32.2871 142.697 28.9631 142.133 25.8129 138.391C24.0163 136.347 22.3991 133.616 21.9083 130.921C21.2728 125.459 21.4992 119.268 21.5011 113.706L21.5069 84.1209L21.502 45.3919C21.4964 38.7022 21.4003 31.7173 21.5918 25.0502C21.8918 20.5439 24.7506 15.6759 28.1841 12.8479C34.6176 7.54894 42.502 7.81215 50.2342 7.81903L64.7147 7.83567C69.5679 7.83275 77.3684 7.46342 81.8285 7.81995C92.3757 8.66302 103.15 17.5356 109.744 25.3278C110.279 24.6422 110.819 23.9623 111.367 23.2878C122.712 9.35981 134.619 4.37596 152.064 2.57485ZM245.887 64.9632C248.297 64.3385 251.166 63.4748 252.263 61.0368C255.824 53.1413 250.926 45.094 242 45.7856C234.308 47.9279 233.471 52.8965 234.772 60.2296C235.553 64.6481 242.126 65.5817 245.887 64.9632ZM61.9268 49.2354C57.5516 55.8202 58.5258 67.1419 68.6555 66.8528C69.3464 66.8329 70.0333 66.8061 70.7252 66.7673C82.1325 64.457 80.929 46.5552 67.3373 47.7495C65.1057 47.9066 63.9654 48.2148 61.9268 49.2354ZM157.047 70.3364C163.876 69.0545 168.398 62.541 167.19 55.7269C165.983 48.913 159.495 44.3343 152.638 45.4573C148.13 46.1955 144.37 49.2893 142.791 53.5576C141.213 57.8259 142.061 62.6094 145.011 66.0817C147.961 69.5543 152.559 71.1792 157.047 70.3364Z" fill="#133E34"/>
<path d="M233.187 11.4482C249.384 10.8749 261.278 10.8614 274.056 22.9063C281.776 30.1831 287.166 42.1638 287.485 52.7787C287.572 55.6637 287.405 58.5508 286.99 61.4072C286.896 65.7567 283.879 74.05 282.037 77.7884C275.659 88.498 267.62 96.2128 255.36 100.031C249.416 101.882 231.349 100.421 228.967 101.563C229.38 105.159 229.453 114.177 229.438 117.935C229.761 122.233 229.866 125.672 228.229 129.647C227.872 130.62 227.324 131.481 226.661 132.278C224.294 135.122 221.066 136.618 217.413 136.976C213.397 137.369 208.326 136.71 205.143 134.043C202.873 132.141 201.374 129.201 200.675 126.364C199.575 121.903 199.509 93.0552 200.466 88.2457C201.014 85.4952 202.769 83.1135 203.754 80.5089C207.428 70.7898 208.724 63.9704 208.474 53.5645C208.3 46.4116 206.353 39.7062 203.48 33.1906C202.416 30.779 200.597 28.5347 200.384 25.8398C200.114 22.4261 201.669 18.8968 203.846 16.3346C204.528 15.5842 204.846 15.3046 205.644 14.6702C207.388 13.3021 208.335 12.6919 210.337 11.7845C217.148 10.9665 226.323 11.2681 233.187 11.4482ZM245.886 64.9632C248.295 64.3386 251.164 63.4748 252.262 61.0369C255.822 53.1413 250.924 45.0941 241.998 45.7857C234.306 47.9279 233.469 52.8965 234.77 60.2296C235.551 64.6481 242.124 65.5817 245.886 64.9632Z" fill="#8FD959"/>
<path d="M203.846 16.3343C204.528 15.5838 204.846 15.3042 205.644 14.6699C204.114 19.1664 212.612 17.4144 215.137 17.4264C215.988 18.8449 216.429 19.2193 216.213 20.971C215.892 23.5679 215.218 25.9362 214.003 28.2508C214.456 32.566 216.523 36.8637 217.082 41.2812C217.221 42.3243 218.19 44.5922 218.192 45.5295C218.192 49.7558 217.144 54.0789 216.555 58.2219C215.764 63.8139 217.569 67.5072 218.727 72.7251C219.144 74.6027 219.345 79.2735 220.383 80.7485C220.603 80.8524 221.986 81.3226 221.958 81.2988C223.727 82.8707 223.734 83.4734 226.169 84.2589C228.529 83.6064 230.925 82.1855 233.409 81.7093C237.1 81.0022 240.513 81.2183 244.167 79.9024C248.353 78.4285 250.353 75.8806 254.951 75.3256C256.216 75.1729 256.813 72.9471 260.14 73.0182C265.397 73.1305 270.113 74.7312 275.314 75.3439C276.649 75.5012 277.878 76.3204 279.273 76.5221L280.869 74.2708C280.229 75.6305 279.611 76.9998 279.014 78.3782C280.158 78.0893 280.845 77.9089 282.037 77.7881C275.659 88.4976 267.62 96.2125 255.36 100.031C249.416 101.882 231.349 100.421 228.967 101.563C229.38 105.159 229.453 114.176 229.438 117.934C229.761 122.232 229.866 125.671 228.229 129.646C227.872 130.619 227.324 131.481 226.661 132.278C224.294 135.121 221.066 136.618 217.413 136.976C213.397 137.369 208.326 136.709 205.143 134.043C202.873 132.14 201.374 129.2 200.675 126.363C199.575 121.903 199.509 93.0549 200.466 88.2454C201.014 85.4949 202.769 83.1131 203.754 80.5086C207.428 70.7895 208.724 63.9701 208.474 53.5641C208.3 46.4113 206.353 39.7059 203.48 33.1903C202.416 30.7787 200.597 28.5344 200.384 25.8395C200.114 22.4257 201.669 18.8965 203.846 16.3343Z" fill="#75CD4C"/>
<path d="M228.229 129.646C227.872 130.619 227.324 131.481 226.661 132.278C224.294 135.121 221.066 136.618 217.413 136.976C213.397 137.369 208.326 136.709 205.143 134.043C202.873 132.14 201.374 129.2 200.675 126.364C199.575 121.903 199.509 93.055 200.466 88.2455C201.014 85.495 202.769 83.1133 203.754 80.5087C207.428 70.7896 208.724 63.9702 208.474 53.5642C208.3 46.4114 206.353 39.706 203.48 33.1904C202.416 30.7788 200.597 28.5345 200.384 25.8396C200.114 22.4259 201.669 18.8966 203.846 16.3344C204.523 20.8855 205.724 19.5861 207.552 23.2472C208.183 24.5102 207.839 27.6538 208.823 29.9692C211.114 35.3676 213.962 41.117 214.358 47.0891C214.396 47.6633 213.436 50.6976 213.532 51.5903C214.251 61.2397 213.087 70.9373 211.606 80.4729C210.874 85.1865 210.282 89.8507 209.428 94.6083L209.242 94.4986C209.381 92.9847 209.308 91.4015 209.27 89.8849C209.141 84.7704 210.382 80.0048 211.437 75.0526C211.713 73.7594 211.345 72.2275 211.69 70.8267L211.42 70.3814C210.892 74.9246 209.942 78.9766 209.221 83.426C208.581 87.3694 209.139 92.0824 208.857 96.0901C208.536 105.315 206.044 118.776 210.316 127.262C210.821 128.268 213.789 129.528 214.191 130.335L213.767 130.734C214.933 131.892 222.518 130.674 224.344 130.657C225.497 130.647 227.08 129.617 228.229 129.646Z" fill="#38B04E"/>
<path d="M279.015 78.3784C280.159 78.0895 280.846 77.9091 282.038 77.7883C275.66 88.4978 267.621 96.2127 255.361 100.031C249.417 101.882 231.35 100.421 228.968 101.563C227.794 100.626 227.411 100.39 226.069 99.7072C226.103 99.1852 228.682 95.8793 229.184 95.1988C240.957 94.7575 250.718 96.4935 261.733 89.9374C264.818 88.0853 267.713 85.9723 270.747 84.0229C273.362 82.3438 278.321 81.7687 279.015 78.3784Z" fill="#30A753"/>
<path d="M226.07 99.7069C227.412 100.39 227.795 100.626 228.969 101.563C229.382 105.159 229.455 114.176 229.44 117.934C229.186 119.485 229.224 124.57 229.207 126.307C226.509 127.854 225.724 127.579 223.013 126.398C222.311 122.694 222.675 117.616 222.593 113.728C222.529 110.722 222.493 107.204 222.698 104.216C222.848 102.018 224.45 100.959 226.07 99.7069Z" fill="#FDFDFC"/>
<path d="M233.188 11.4482C249.385 10.8749 261.279 10.8614 274.057 22.9063C281.777 30.1831 287.167 42.1638 287.485 52.7787C287.573 55.6637 287.406 58.5508 286.991 61.4072C286.786 60.6282 286.615 55.6145 286.918 55.193L287.186 55.9078C287.286 54.4657 286.521 46.5678 285.712 45.8653C285.677 46.6315 285.453 47.6942 285.453 48.1761C285.459 51.4175 286.037 55.0019 284.76 58.0901C284.325 59.1452 283.474 61.5282 282.406 62.0165C281.527 61.1845 281.42 60.0304 280.662 59.2547C280.33 58.9144 279.935 59.3356 279.194 58.8198L279.224 58.2393C278.908 55.2063 278.865 51.4107 278.403 48.523C277.164 40.7425 273.24 34.2559 267.713 28.7936C262.732 23.8699 253.114 19.2488 246.222 18.204C237.769 16.9223 226.287 17.092 217.587 17.2233C216.689 17.3347 216.04 17.4052 215.138 17.4267C212.613 17.4147 204.114 19.1668 205.645 14.6702C207.389 13.3021 208.336 12.6919 210.338 11.7845C217.149 10.9665 226.324 11.2681 233.188 11.4482Z" fill="#FDFDFC"/>
<path d="M233.188 11.4479C249.385 10.8746 261.28 10.8611 274.058 22.906C281.778 30.1828 287.167 42.1635 287.486 52.7784C287.574 55.6634 287.407 58.5505 286.992 61.4069C286.787 60.628 286.615 55.6142 286.919 55.1928L287.187 55.9075C287.287 54.4654 286.521 46.5675 285.712 45.8651C285.678 46.6312 285.454 47.6939 285.454 48.1758C285.46 51.4172 286.038 55.0016 284.76 58.0899C284.326 59.1449 283.474 61.5279 282.407 62.0162C281.527 61.1842 281.42 60.0301 280.663 59.2544C280.331 58.9142 279.935 59.3354 279.195 58.8196L279.225 58.239C280.149 58.445 282.721 60.0359 283.442 59.2872C285.308 57.3523 285.533 50.9232 284.953 48.4662C283.273 41.363 280.181 34.4164 276.043 28.4038C268.518 18.12 256.487 14.1777 244.323 12.7463C241.182 12.3359 236.143 11.9602 233.383 11.4824L233.188 11.4479Z" fill="#F1F6B3"/>
<path d="M205.645 14.6699C207.389 13.3018 208.336 12.6916 210.338 11.7842C210.137 14.2033 210.351 14.7938 211.158 17.0741C213.458 17.3189 215.407 17.1064 217.587 17.2229C216.689 17.3344 216.04 17.4049 215.138 17.4264C212.613 17.4144 204.114 19.1665 205.645 14.6699Z" fill="#C3E97D"/>
<path d="M228.921 42.6821C228.61 41.7336 228.144 40.736 228.662 39.8595C229.661 38.1653 233.213 37.2573 234.98 36.8114C240.194 35.4956 250.876 35.5467 255.514 38.3264C259.667 41.2621 263.564 46.4983 264.672 51.472C265.243 54.0342 265.32 57.9512 264.007 60.1944C263.288 61.421 261.208 61.5207 259.905 62.1784C258.392 62.943 257.055 64.1308 255.439 64.6419C254.002 66.5811 252.11 68.1411 249.928 69.1857C251.785 69.5626 252.164 69.5323 253.984 69.2641C253.736 70.5028 253.648 71.5065 252.778 72.4473C250.698 74.7004 245.73 75.5882 242.773 75.5995C237.685 75.6188 232.166 75.0839 228.381 71.3501C223.499 66.5347 222.562 60.6708 222.54 54.097C222.532 50.8267 222.112 46.768 224.663 44.2683C226.139 42.8193 227.055 42.7089 228.921 42.6821ZM245.886 64.963C248.295 64.3383 251.164 63.4746 252.262 61.0366C255.822 53.1411 250.925 45.0938 241.998 45.7854C234.306 47.9277 233.469 52.8963 234.77 60.2294C235.551 64.6479 242.124 65.5815 245.886 64.963Z" fill="#113931"/>
<path d="M228.922 42.6821C228.612 41.7336 228.145 40.736 228.663 39.8595C229.662 38.1653 233.214 37.2573 234.982 36.8114C240.196 35.4956 250.877 35.5467 255.516 38.3264C259.669 41.2621 263.565 46.4983 264.673 51.472C265.245 54.0342 265.322 57.9512 264.008 60.1944C263.289 61.421 261.209 61.5207 259.906 62.1784C258.394 62.943 257.056 64.1308 255.441 64.6419C260.187 58.2362 258.986 49.2375 252.721 44.2893C246.459 39.3412 237.387 40.2217 232.2 46.2812C231.351 44.8795 231.034 44.1698 229.727 43.1668L228.922 42.6821Z" fill="#38B04E"/>
<path d="M253.984 69.2643C253.736 70.503 253.648 71.5067 252.778 72.4475C250.698 74.7006 245.73 75.5884 242.773 75.5997C237.685 75.6191 232.166 75.0841 228.381 71.3503C223.499 66.5349 222.562 60.671 222.54 54.0973C222.532 50.8269 222.112 46.7682 224.663 44.2685C226.139 42.8195 227.055 42.7091 228.921 42.6823L229.725 43.167C230.641 45.1876 229.965 46.7013 229.147 48.8674C229.092 49.0132 229.034 49.1576 228.974 49.3012C229.237 50.5337 229.137 51.2432 229.049 52.4789C228.814 53.4687 228.683 54.4799 228.657 55.4966C228.568 59.0767 229.787 62.5678 232.087 65.3209C236.441 70.5303 243.795 72.1233 249.928 69.1859C251.785 69.5628 252.164 69.5325 253.984 69.2643Z" fill="#FDFDFC"/>
<path d="M228.974 49.3011C229.237 50.5336 229.136 51.2431 229.049 52.4788C228.813 53.4687 228.683 54.4798 228.657 55.4965C228.567 59.0766 229.787 62.5677 232.087 65.3208C229.958 64.3651 229.997 64.034 228.811 61.9891C228.578 61.1484 228.009 60.153 227.81 59.2377C227.02 55.583 227.671 52.6533 228.974 49.3011Z" fill="#F7FAC4"/>
<path d="M229.727 43.1667C231.034 44.1697 231.351 44.8794 232.2 46.2811C230.67 48.0684 229.59 50.1927 229.051 52.4786C229.138 51.2429 229.239 50.5334 228.976 49.3009C229.036 49.1573 229.093 49.0128 229.149 48.8671C229.966 46.701 230.642 45.1873 229.727 43.1667Z" fill="#C3E97D"/>
<path d="M35.4487 14.1974C36.4929 13.6509 37.531 13.1713 38.7369 13.0921C45.3343 12.659 51.9548 12.65 58.5869 12.7585C66.6061 12.8897 75.6741 12.1661 83.4406 14.2797C90.4554 16.1888 96.127 19.8897 101.61 24.4835C109.42 30.6265 104.458 35.8951 103.079 43.1272C102.093 48.2967 101.439 55.7496 101.877 60.9885C102.195 66.2842 103.278 70.6367 103.951 75.5706C104.642 80.6412 101.322 88.4432 97.8734 92.0573C92.1517 98.21 82.7058 102.507 74.3317 102.997C71.1984 103.18 67.2559 103.038 64.1467 102.962C61.9866 103.013 54.2755 101.895 53.1866 102.528L54.0596 103.08C54.4905 103.419 54.7539 103.691 54.7434 104.298C54.6101 112.006 55.4189 120.873 54.7802 128.485L54.1813 130.054C52.656 134.125 49.231 137.564 44.901 138.441C40.9305 139.256 35.3077 138.645 31.9035 136.299C25.8793 132.146 26.0253 125.749 25.9743 119.416C25.9467 114.928 25.951 110.44 25.9872 105.952L26.1964 62.2051L26.2311 37.2152C26.242 28.803 24.789 25.6108 29.7003 18.3292L30.6888 17.348L31.0857 16.9202C32.045 16.1154 34.2693 14.8996 35.4487 14.1974ZM61.9264 49.235C57.5513 55.8199 58.5255 67.1415 68.6552 66.8524C69.3461 66.8326 70.0329 66.8058 70.7249 66.767C82.1322 64.4566 80.9286 46.5548 67.337 47.7492C65.1053 47.9062 63.9651 48.2145 61.9264 49.235Z" fill="#75CD4C"/>
<path d="M29.7003 18.3293L29.7194 18.4608C30.1781 21.481 31.7537 21.9182 31.957 24.5726C32.1984 27.7271 32.1875 31.0761 32.1641 34.2429C32.1517 35.9179 31.8926 38.4258 32.1434 39.9838C32.8086 39.095 31.8661 36.2384 32.8897 34.7412C33.9901 36.5694 34.3744 72.8763 34.7268 78.0469C34.8203 79.4175 34.6489 83.1902 34.6964 84.9162C34.7589 87.1907 35.4915 89.6715 35.4752 91.8926C35.4573 94.3663 35.189 97.9005 35.0978 100.278C34.9981 102.878 34.7163 122.672 35.9068 123.624C35.8569 121.661 35.5138 119.504 35.6509 117.702C35.6631 119.955 38.974 124.194 40.9155 124.579C41.2638 125.951 43.8847 131.406 45.4126 131.194C48.4742 130.769 51.3489 131.221 54.1813 130.054C52.656 134.125 49.231 137.564 44.901 138.441C40.9305 139.256 35.3077 138.645 31.9035 136.299C25.8793 132.146 26.0253 125.749 25.9743 119.416C25.9467 114.928 25.951 110.44 25.9872 105.952L26.1964 62.2051L26.2311 37.2152C26.242 28.803 24.789 25.6108 29.7003 18.3293Z" fill="#36AE4C"/>
<path d="M35.4487 14.1974C36.4928 13.6509 37.531 13.1713 38.7369 13.0921C45.3343 12.659 51.9548 12.65 58.5868 12.7585C66.606 12.8897 75.6741 12.1661 83.4406 14.2797C90.4554 16.1888 96.127 19.8897 101.61 24.4835L101.605 24.7011C101.567 26.5272 102.209 26.7941 102.942 28.1112C103.866 29.7715 101.329 35.0732 100.63 36.8507C99.6351 36.4305 99.4672 36.227 98.7003 35.4475L98.6089 35.0559C97.4777 33.3981 95.4784 31.5663 93.9867 30.236C88.5577 25.395 83.0757 22.14 75.8666 20.789C65.154 18.2329 49.3061 18.7411 38.1138 18.8764L37.4811 18.6389C36.949 17.6473 36.9528 16.3877 36.4472 15.2695C35.8578 14.8832 35.772 14.8306 35.4487 14.1974Z" fill="#FDFDFC"/>
<path d="M35.4487 14.1974C36.4928 13.6509 37.531 13.1713 38.7369 13.0921C45.3343 12.659 51.9548 12.65 58.5868 12.7585C66.606 12.8897 75.6741 12.1661 83.4406 14.2797C90.4554 16.1888 96.127 19.8897 101.61 24.4835L101.605 24.7011C101.567 26.5272 102.209 26.7941 102.942 28.1112C103.866 29.7715 101.329 35.0732 100.63 36.8507C99.6351 36.4305 99.4672 36.227 98.7003 35.4475L98.6089 35.0559C99.2331 34.2595 100.424 33.658 101.322 33.1239C102.18 28.4657 99.4637 26.1509 96.0844 23.4176C84.8564 14.3367 71.3201 15.0671 57.7453 14.2315C52.4373 13.9048 47.1108 12.5868 41.6372 13.5882C39.9265 13.8433 37.4751 13.9249 36.4472 15.2695C35.8578 14.8832 35.772 14.8306 35.4487 14.1974Z" fill="#E7F3A6"/>
<path d="M51.4059 101.497C52.0845 101.95 52.456 102.164 53.1867 102.529L54.0597 103.08C54.4906 103.419 54.754 103.692 54.7435 104.298C54.6102 112.006 55.419 120.873 54.7803 128.485C52.8328 128.555 51.9035 129.648 49.4434 128.567C46.7279 125.29 48.1838 116.534 47.8932 112.372C47.5759 107.826 48.2343 104.871 51.4059 101.497Z" fill="#FDFDFC"/>
<path d="M54.0589 103.08C54.4898 103.419 54.7532 103.691 54.7427 104.298C54.6094 112.006 55.4182 120.873 54.7795 128.485C52.832 128.555 51.9027 129.648 49.4426 128.567C49.7289 128.511 52.5834 127.297 53.2757 127.04C53.8823 124.341 53.6973 122.457 53.6427 119.726C53.5312 114.143 53.6117 108.643 54.0589 103.08Z" fill="#C3E97D"/>
<path d="M101.445 60.4752L101.878 60.9888C102.196 66.2845 103.279 70.637 103.952 75.5708C104.643 80.6415 101.323 88.4435 97.8744 92.0576C92.1528 98.2103 82.7069 102.507 74.3327 102.997C71.1994 103.18 67.2569 103.039 64.1478 102.962C65.9309 102.371 73.6298 103 76.0943 102.491C77.0376 102.296 78.7079 102.248 80.144 101.778C81.9291 101.194 86.0612 99.8977 87.796 98.7954C87.805 98.7896 87.8803 97.8598 87.8938 97.8319C88.2139 97.167 89.5415 96.4946 89.8942 95.927C90.781 94.4985 91.3913 92.8299 91.9519 91.3302C92.3259 90.3295 93.2977 87.1609 93.7581 86.5883L93.9137 86.9053C94.3157 86.728 99.9308 77.333 100.76 76.3361C100.623 76.5012 102.34 69.5086 102.342 69.5559C102.24 66.9328 101.266 63.3367 101.432 60.6594L101.445 60.4752Z" fill="#2B9161"/>
<path d="M101.611 24.4837C109.421 30.6266 104.459 35.8952 103.08 43.1273C102.094 48.2969 101.44 55.7497 101.878 60.9887L101.445 60.475C101.54 56.8548 101.188 53.3411 101.46 49.4761C101.721 45.7677 103.735 40.3873 103.467 37.2831C101.945 38.9425 100.516 38.5586 99.2857 40.7942C97.752 43.5805 98.212 47.2322 97.6052 50.3822C97.2528 52.2113 96.5578 53.6618 96.2213 55.2829C95.5836 58.3555 95.0263 61.507 94.3159 64.5697C94.0945 65.5242 94.0131 68.0823 93.7525 68.4636L93.4641 68.349C93.3312 67.8692 93.2063 67.4276 93.0488 66.9527C92.6275 68.1481 92.4516 68.6473 91.8018 69.7726L91.6131 69.593C92.5685 66.4624 93.702 63.1987 94.6105 60.1005C95.0654 58.5494 95.169 55.1246 95.6701 53.3057C95.7963 52.2528 96.6073 50.9728 96.7247 49.984C97.4265 44.0665 96.3024 41.7951 100.631 36.8508C101.33 35.0733 103.867 29.7717 102.943 28.1113C102.21 26.7942 101.568 26.5273 101.606 24.7012L101.611 24.4837Z" fill="#38B04E"/>
<path d="M38.1142 18.8764C49.3065 18.7411 65.1544 18.2329 75.867 20.789C83.0761 22.14 88.5581 25.395 93.9871 30.236C95.4788 31.5663 97.4781 33.3981 98.6093 35.0559L98.7007 35.4475L98.3164 35.3927C96.1169 32.4841 93.7125 30.2319 90.4902 28.562C90.3619 28.0271 90.3283 27.996 90.0242 27.5268C83.3584 23.9903 84.3321 22.9557 75.7324 21.1318C74.0154 21.2579 68.3226 19.6038 66.0801 19.741C65.2869 19.7893 61.5143 20.2647 61.1263 20.0776C59.2661 19.1802 58.6394 19.154 56.6277 19.167C57.4855 19.3775 57.8259 19.5188 58.6394 19.8761L58.6174 20.1015C56.0793 20.0936 52.5429 21.0519 50.516 20.864C50.0214 20.724 48.9528 20.8199 48.3999 20.7954C46.6891 20.7189 38.9714 20.4756 37.8746 19.2275L38.1142 18.8764Z" fill="#C3E97D"/>
<path d="M35.449 14.1976C35.7723 14.8309 35.8581 14.8835 36.4476 15.2698C36.9532 16.3879 36.9493 17.6476 37.4815 18.6391L38.1142 18.8766L37.8745 19.2278C38.9713 20.4758 46.689 20.7191 48.3999 20.7956C48.9528 20.8201 50.0213 20.7242 50.516 20.8642C49.5416 21.4949 39.083 20.638 37.3563 20.4899C36.2584 20.3959 32.8806 20.8561 32.0891 20.3889C30.9461 19.1351 31.5386 18.4891 31.1355 17.0885L31.0861 16.9204C32.0453 16.1157 34.2696 14.8999 35.449 14.1976Z" fill="#8FD959"/>
<path d="M53.1101 42.7962C53.0108 42.1435 52.8565 41.5377 53.3807 40.993C57.8618 36.3358 66.6168 37.5705 72.4215 38.0381C75.997 38.3999 79.6528 39.723 82.4622 42.051C86.0018 44.9841 88.7444 49.7358 89.4064 54.4113C89.7516 56.8475 90.0601 64.333 86.4004 65.1424C85.7371 65.2891 82.5183 65.0501 81.7422 64.8956L81.2274 65.2306C79.8351 67.6129 78.7636 68.6611 76.5129 70.294C77.7349 70.9589 79.0537 70.2693 79.9503 71.4076C79.9804 71.6309 80.0701 72.0008 79.9239 72.1742C72.6791 80.7758 52.557 78.693 48.7439 67.1325C47.2519 62.8147 47.8622 58.0262 47.8329 53.5156C47.8038 49.0726 48.319 44.5186 53.1101 42.7962ZM61.9261 49.2351C57.5509 55.82 58.5251 67.1416 68.6548 66.8525C69.3457 66.8327 70.0326 66.8059 70.7245 66.7671C82.1318 64.4567 80.9283 46.5549 67.3366 47.7493C65.1049 47.9063 63.9647 48.2146 61.9261 49.2351Z" fill="#113931"/>
<path d="M53.1101 42.7963L53.5917 43.2821C54.5366 44.0636 55.0326 44.4931 55.3105 45.7124C55.2885 47.3154 55.4847 48.155 53.9471 49.1357L53.7965 51.6685C53.9291 54.1815 53.8078 57.6027 55.0353 59.8461C55.1924 61.4909 55.3939 62.9612 56.0194 64.5148C57.2047 66.8569 57.5635 67.4515 59.5203 69.2256C61.1697 70.4031 61.9286 70.7788 63.7752 71.6342C68.2641 72.6487 72.4444 72.7203 76.5129 70.2941C77.7349 70.959 79.0537 70.2693 79.9503 71.4077C79.9804 71.631 80.0701 72.0008 79.9239 72.1743C72.6791 80.7759 52.557 78.6931 48.7439 67.1326C47.2519 62.8148 47.8622 58.0262 47.8329 53.5157C47.8038 49.0727 48.319 44.5186 53.1101 42.7963Z" fill="#FDFDFC"/>
<path d="M53.7955 51.6684C53.9282 54.1814 53.8068 57.6026 55.0344 59.846C55.1914 61.4908 55.393 62.9611 56.0184 64.5147C55.8121 64.9446 55.6919 65.265 55.6037 65.7335L55.3478 65.8876C54.9201 65.0571 54.6323 64.4463 54.0217 63.7181L53.9044 63.5802C53.2741 61.5308 53.3291 53.8462 53.7955 51.6684Z" fill="#F7FAC4"/>
<path d="M53.9053 63.5803L54.0225 63.7181C54.6332 64.4463 54.921 65.0572 55.3487 65.8876L55.6046 65.7336C55.6927 65.2651 55.813 64.9447 56.0192 64.5147C57.2046 66.8568 57.5634 67.4514 59.5201 69.2255C59.1044 69.4043 58.4612 69.733 58.0384 69.7409C56.3036 68.1771 54.419 65.8738 53.9053 63.5803Z" fill="#F3F0C4"/>
<path d="M53.5912 43.2819C54.5361 44.0634 55.0321 44.4929 55.31 45.7122C55.288 47.3152 55.4842 48.1549 53.9466 49.1356C54.0339 46.8152 54.0821 45.5471 53.5912 43.2819Z" fill="#F3F0C4"/>
<path d="M59.519 69.2257C61.1685 70.4033 61.9274 70.7789 63.7739 71.6343C61.4119 71.6759 59.795 71.4909 58.0373 69.7411C58.4601 69.7332 59.1033 69.4045 59.519 69.2257Z" fill="#F8F3DD"/>
<path d="M53.1111 42.7962C53.0118 42.1435 52.8575 41.5377 53.3818 40.993C57.8628 36.3358 66.6178 37.5705 72.4225 38.0381C75.9981 38.3999 79.6539 39.723 82.4632 42.051C86.0028 44.9841 88.7454 49.7358 89.4074 54.4113C89.7526 56.8475 90.0611 64.333 86.4015 65.1424C85.7382 65.2891 82.5193 65.0501 81.7432 64.8956L81.2284 65.2306C87.712 54.1522 79.5672 42.4532 67.6104 43.2758C64.6616 43.4787 61.7116 43.1474 59.0125 44.8318C57.531 45.7564 55.9277 47.3618 55.5066 49.0468C55.7003 47.7255 55.5758 47.0079 55.3115 45.7123C55.0336 44.493 54.5376 44.0635 53.5927 43.282L53.1111 42.7962Z" fill="#38B04E"/>
<path d="M55.3109 45.7125C55.5751 47.0081 55.6997 47.7256 55.506 49.047C54.7458 53.0443 54.7999 55.8445 55.0357 59.8462C53.8082 57.6028 53.9295 54.1816 53.7969 51.6686L53.9475 49.1358C55.4851 48.1552 55.2889 47.3155 55.3109 45.7125Z" fill="#C3E97D"/>
<path d="M123.856 20.0837C134.081 11.7944 147.243 7.9841 160.338 9.52237C161.39 9.646 162.439 9.80381 163.481 9.99552C176.944 12.4719 188.741 20.4729 195.985 32.0415C203.229 43.6099 205.253 57.6789 201.56 70.807C200.429 74.8305 198.78 78.6917 196.655 82.2949C183.393 104.784 154.651 112.814 131.575 100.479C108.498 88.1434 99.3381 59.8531 110.834 36.4191C113.934 30.0987 118.377 24.5248 123.856 20.0837ZM157.046 70.3362C163.874 69.0542 168.396 62.5408 167.189 55.7267C165.981 48.9128 159.493 44.3341 152.636 45.4571C148.129 46.1953 144.368 49.2891 142.79 53.5574C141.211 57.8257 142.059 62.6092 145.01 66.0815C147.96 69.5541 152.557 71.179 157.046 70.3362Z" fill="#8FD959"/>
<path d="M196.655 82.295C183.393 104.784 154.651 112.814 131.575 100.479C108.498 88.1435 99.3381 59.8532 110.834 36.4193C110.769 37.051 110.713 37.5917 110.601 38.2189C111.132 38.4467 111.82 38.2939 111.858 38.3261C112.935 39.2392 113.92 40.0706 115.15 40.7623C114.665 45.2631 115.02 49.4121 114.946 53.9133C114.795 63.0993 116.92 68.0832 120.693 76.0125C124.834 84.7165 130.631 89.5739 139.472 93.5668C142.054 94.7324 151.035 97.2426 153.754 96.7334C152.83 96.6511 152.302 96.6382 151.373 96.6673L151.316 96.355C152.518 95.5488 166.516 97.6218 168.951 97.0006C174.386 95.6142 178.66 91.2502 183.379 88.5242C187.295 86.2627 190.043 86.4872 192.757 82.5138C194.244 82.3452 195.155 82.2217 196.655 82.295Z" fill="#37AB55"/>
<path d="M123.858 20.0837C134.083 11.7944 147.245 7.9841 160.34 9.52237C161.392 9.646 162.441 9.80381 163.483 9.99552C176.946 12.4719 188.743 20.4729 195.987 32.0415C203.231 43.6099 205.255 57.6789 201.563 70.807C201.132 70.0157 201.842 67.0123 201.955 65.8699C202.309 62.2928 202.809 58.7314 202.567 55.1261L202.384 55.0351C201.479 56.1306 199.497 60.3817 198.737 61.8671C198.045 62.2504 197.467 62.1176 196.671 62.0486C196.096 62.512 196.171 62.3053 196.097 62.8725C196.7 63.6783 197.65 63.3998 198.216 64.21L197.576 64.3813C197.402 64.3443 197.188 64.3147 196.98 64.1297C195.53 62.8384 194.645 60.9863 193.255 59.5998C193.229 59.3313 193.207 59.1115 193.19 58.9402C192.794 55.7444 192.822 52.3715 192.402 49.1787C191.442 41.878 187.633 35.3285 182.593 30.0768C173.411 20.51 163.408 17.5262 150.574 17.1895C147.869 17.2735 138.625 19.0621 136.893 17.4928C136.003 16.6864 134.63 14.6839 134.453 13.4995C130.846 15.2161 127.366 17.8916 124.154 20.2397L123.858 20.0837Z" fill="#FDFDFC"/>
<path d="M163.483 9.99561C176.947 12.472 188.743 20.473 195.988 32.0416C203.232 43.61 205.255 57.679 201.563 70.8071C201.132 70.0158 201.842 67.0124 201.955 65.87C202.31 62.2929 202.809 58.7315 202.567 55.1262L202.385 55.0352C201.479 56.1307 199.497 60.3818 198.737 61.8672C198.045 62.2505 197.467 62.1177 196.671 62.0487C196.096 62.5121 196.171 62.3054 196.097 62.8726C196.7 63.6783 197.65 63.3999 198.216 64.2101L197.576 64.3814C197.402 64.3444 197.188 64.3147 196.981 64.1298C195.53 62.8385 194.645 60.9864 193.256 59.5999C193.229 59.3314 193.207 59.1115 193.191 58.9403C194.012 59.5807 194.714 61.1189 195.937 61.6007C197.387 62.1721 198.567 61.5401 198.997 60.0537C200.923 53.3874 199.965 46.5005 197.078 40.2804C193.828 33.278 190.103 26.7076 184.235 21.5249C182.481 19.9372 181.582 18.6977 179.465 17.3547C175.298 14.7118 171.04 13.1629 166.485 11.3811C165.394 10.9541 164.629 10.4332 163.483 9.99561Z" fill="#E9F3AC"/>
<path d="M123.858 20.0837C134.083 11.7944 147.245 7.9841 160.34 9.52237C154.814 9.56685 149.344 9.61249 144.084 11.0305C141.226 11.8012 136.519 12.1885 136.168 15.5118C136.124 15.9228 136.468 16.9284 136.85 17.1879C140.683 18.456 146.111 16.4722 150.574 17.1895C147.869 17.2735 138.625 19.0621 136.893 17.4928C136.003 16.6864 134.63 14.6839 134.453 13.4995C130.846 15.2161 127.366 17.8916 124.154 20.2397L123.858 20.0837Z" fill="#C3E97D"/>
<path d="M138.051 39.7342C141.875 36.8446 143.277 36.4245 148.125 36.2444C149.793 36.1824 150.937 35.9941 152.772 36.149C158.918 35.9148 165.797 36.4117 170.385 40.7857C175.21 45.3861 178.859 51.6484 178.17 58.5008C178.075 59.4466 178.02 60.1972 177.685 61.0807C177.745 61.9734 176.848 63.2419 176.249 63.8768C174.606 64.38 172.891 64.6549 171.459 65.4368C170.704 65.8491 169.555 67.2339 169.26 67.1519L169.81 65.5674L169.695 65.3799C168.376 66.3031 168.683 68.2926 166.814 68.6931C166.26 69.2121 165.623 69.7816 165.117 70.3355C166.299 70.4506 166.719 70.3809 167.478 71.2904C167.241 71.8985 167.124 72.3022 166.691 72.8069L166.653 72.8864C164.531 77.2634 161.031 78.3214 156.525 78.7648C142.779 80.117 133.295 74.6443 132.696 60.1047C132.492 55.1523 131.826 49.0945 135.294 44.9189C136.887 43.0406 138.643 42.8395 140.503 44.4907L140.651 44.3336C140.17 43.5515 139.751 42.7696 139.249 41.9781C138.806 41.4557 138.36 40.3913 138.051 39.7342ZM157.046 70.3362C163.874 69.0542 168.396 62.5408 167.188 55.7267C165.981 48.9128 159.493 44.3341 152.636 45.4571C148.129 46.1953 144.368 49.289 142.789 53.5574C141.211 57.8257 142.059 62.6092 145.009 66.0815C147.96 69.5541 152.557 71.179 157.046 70.3362Z" fill="#113931"/>
<path d="M138.052 39.7342C141.875 36.8446 143.277 36.4245 148.125 36.2444C149.794 36.1824 150.938 35.9941 152.773 36.149C158.918 35.9148 165.797 36.4117 170.385 40.7857C175.211 45.3861 178.859 51.6484 178.17 58.5008C178.075 59.4466 178.02 60.1972 177.685 61.0807C177.745 61.9734 176.849 63.2419 176.249 63.8768C174.606 64.38 172.892 64.6549 171.46 65.4368C170.705 65.8491 169.556 67.2339 169.26 67.1519L169.811 65.5674L169.696 65.3799C168.376 66.3031 168.683 68.2926 166.814 68.6931C168.325 66.7128 168.833 65.6959 169.853 63.4198C175.26 44.6558 153.599 34.1092 141.88 47.3364C141.539 45.9588 141.591 45.3113 140.651 44.3336C140.17 43.5515 139.751 42.7696 139.249 41.9781C138.807 41.4557 138.36 40.3913 138.052 39.7342Z" fill="#38B04E"/>
<path d="M138.052 39.7342C141.875 36.8446 143.277 36.4245 148.125 36.2444C149.794 36.1824 150.938 35.9941 152.773 36.149L152.61 36.1897C148.06 37.3116 142.746 37.2607 139.249 41.9781C138.807 41.4557 138.36 40.3913 138.052 39.7342Z" fill="#75CD4C"/>
<path d="M169.854 63.4197C171.917 65.1099 174.681 63.758 176.532 62.3485C177.046 61.9571 176.958 61.4421 177.686 61.0806C177.746 61.9733 176.849 63.2418 176.25 63.8767C174.607 64.3799 172.892 64.6548 171.46 65.4367C170.706 65.8489 169.557 67.2338 169.261 67.1518L169.811 65.5673L169.696 65.3798C168.377 66.303 168.684 68.2925 166.815 68.693C168.326 66.7127 168.833 65.6958 169.854 63.4197Z" fill="#75CD4C"/>
<path d="M166.691 72.8072L166.653 72.8867C164.531 77.2636 161.031 78.3216 156.525 78.765C142.779 80.1173 133.295 74.6446 132.696 60.1049C132.492 55.1525 131.826 49.0948 135.294 44.9191C136.887 43.0409 138.643 42.8397 140.503 44.4909L140.651 44.3339C141.591 45.3116 141.538 45.959 141.88 47.3367C141.302 48.4369 140.856 49.33 140.356 50.4713C138.994 54.7878 139.024 58.6709 140.076 63.0304C140.002 63.8807 139.91 64.7293 139.801 65.5757C140.347 67.4208 141.844 69.2413 143.839 69.5458C145.08 70.2669 146.324 71.544 147.497 72.1391C151.833 74.3395 157.622 74.0246 162.083 72.3664L162.862 71.8316L165.117 70.3358C166.299 70.4508 166.719 70.3811 167.478 71.2907C167.241 71.8987 167.124 72.3025 166.691 72.8072Z" fill="#FDFDFC"/>
<path d="M139.801 65.5754C139.64 64.8521 138.345 62.305 137.936 60.9242C136.822 57.1711 137.821 52.58 139.636 49.212L140.357 50.471C138.994 54.7874 139.025 58.6705 140.077 63.03C140.003 63.8803 139.911 64.7289 139.801 65.5754Z" fill="#F7FAC4"/>
<path d="M165.12 70.3355C166.301 70.4506 166.722 70.3809 167.48 71.2904C167.243 71.8985 167.127 72.3022 166.694 72.807C165.342 72.1682 163.862 73.1821 162.085 72.3662L162.865 71.8314L165.12 70.3355Z" fill="#C3E97D"/>
<path d="M140.504 44.4909L140.651 44.3339C141.591 45.3116 141.539 45.959 141.88 47.3366C141.303 48.4368 140.856 49.33 140.356 50.4713L139.636 49.2124C140.099 48.0231 141.144 45.6405 140.504 44.4909Z" fill="#75CD4C"/>
<path d="M140.078 63.0301C140.986 65.3658 141.907 67.8217 143.841 69.5455C141.845 69.241 140.349 67.4205 139.802 65.5754C139.912 64.729 140.004 63.8804 140.078 63.0301Z" fill="#F3F0C4"/>
<path d="M37.7816 173.738C45.5759 173.354 52.2035 179.342 52.5736 187.104C52.9438 194.866 46.9158 201.453 39.12 201.806C31.3466 202.157 24.755 196.176 24.3859 188.437C24.017 180.697 30.01 174.121 37.7816 173.738ZM39.9377 195.121C48.6416 192.818 46.4416 179.563 37.4164 180.199C30.3313 182.839 28.6798 190.855 36.0048 194.738C37.0361 195.285 38.7457 195.172 39.9377 195.121Z" fill="#18262E"/>
<path d="M162.365 173.75C170.106 173.273 176.782 179.109 177.308 186.815C177.833 194.52 172.012 201.202 164.277 201.771C156.476 202.345 149.697 196.489 149.166 188.718C148.636 180.948 154.558 174.232 162.365 173.75ZM164.34 195.219C173.583 193.142 171.566 179.414 161.914 180.208C159.405 181.32 157.555 182.663 156.512 185.315C154.839 189.572 158.128 194.989 162.761 195.167C163.284 195.187 163.813 195.209 164.34 195.219Z" fill="#18262E"/>
<path d="M56.8901 173.623C57.725 173.52 58.1443 173.419 58.9561 173.648C60.603 174.647 63.873 186.908 64.5046 189.225C65.7283 185.415 67.3377 179.033 68.9307 175.761C69.4126 174.771 69.8191 174.242 70.8968 173.879C71.708 173.605 72.4284 173.5 73.2136 173.922C75.937 175.385 78.6606 186.022 79.6236 189.337C79.7289 188.641 79.8654 187.949 80.0329 187.265C80.8349 184.044 82.9807 176.216 85.2639 173.694C85.7436 173.164 89.6592 174.043 90.0529 175.329C90.9272 178.183 88.047 183.668 87.0863 186.451C85.8395 190.368 84.4992 195.176 82.8346 198.906C82.0853 200.585 80.9748 201.217 79.2971 201.698C75.9941 200.452 75.6083 197.912 74.6215 194.784C73.713 191.905 72.7977 188.912 72.0852 185.984C71.1844 189.951 69.4489 194.106 68.2099 198.012C67.1058 201.491 65.5723 202.105 62.3567 200.924C60.6285 198.378 57.5904 188.098 56.2501 184.609C55.7443 183.293 53.3641 176.754 53.9818 175.44C54.4365 174.472 55.8656 173.958 56.8901 173.623Z" fill="#18262E"/>
<path d="M119.917 173.659C127.046 173.367 136.327 172.768 138.047 182.008C138.784 185.967 137.478 188.132 135.29 191.231C136.198 193.087 140.112 199.245 137.553 200.601C135.508 201.686 133.536 202.483 132.084 200.198C130.782 197.998 130.247 196.278 129.424 193.88C127.518 193.899 125.213 193.992 123.361 193.719C123.382 195.944 123.493 198.602 123.158 200.755C121.571 201.457 118.252 202.336 117.118 200.5C116.606 197.862 116.411 176.86 117.019 174.799C117.818 173.774 118.651 173.82 119.917 173.659ZM123.326 187.451C125.173 187.327 129.091 187.551 130.225 186.615C134.786 179.893 126.642 181.061 123.381 180.322C123.384 182.367 123.482 185.52 123.326 187.451Z" fill="#18262E"/>
<path d="M95.2318 173.667C99.2464 173.522 111.141 172.992 114.032 174.736C114.551 181.046 113.118 180.481 107.258 180.61C104.512 180.67 101.695 180.595 98.9462 180.581C99.1013 182.068 99.0168 182.767 98.8807 184.248C101.226 184.145 103.555 184.06 105.906 184.043C108.907 184.02 109.966 184.868 110.025 187.895C110.141 193.848 101.287 189.618 99.0519 191.693L99.0639 192.588C98.9811 193.376 98.8991 193.783 99.0748 194.559C100.539 195.774 109.507 194.07 112.241 194.984C112.958 195.224 113.567 195.695 113.891 196.386C114.373 197.415 114.316 198.946 113.912 199.992C113.716 200.499 113.393 200.903 112.88 201.104C110.688 201.959 95.5108 202.003 93.5906 201.144C93.1681 200.955 92.8371 200.623 92.6768 200.188C92.0015 198.356 92.101 175.823 92.9117 174.564C93.366 173.859 94.4835 173.789 95.2318 173.667Z" fill="#18262E"/>
<path d="M4.57388 173.652C7.2846 173.585 9.99863 173.56 12.5431 173.707C19.5996 174.113 24.2326 179.743 22.539 186.611C22.1601 188.148 21.3947 189.318 20.366 190.465C17.7454 193.386 15.0939 193.77 11.4604 193.918C10.079 193.944 9.42129 193.937 8.0425 193.768C8.0336 195.534 8.43986 198.889 7.55809 200.26C7.12483 200.922 6.4417 201.384 5.66296 201.539C4.59283 201.754 3.10909 201.567 2.20762 200.923C1.66652 200.537 1.54662 200.174 1.4551 199.539C1.10315 197.099 0.854482 175.694 1.63372 174.709C2.29447 173.873 3.58581 173.801 4.57388 173.652ZM8.09505 187.445C10.4302 187.302 13.1024 187.613 15.0549 186.373C16.1826 185.126 17.1358 183.09 15.4665 181.846C13.4321 180.33 10.6434 180.514 8.22867 180.492C7.78915 181.357 8.04871 186.086 8.09505 187.445Z" fill="#18262E"/>
<path d="M216.104 173.65C221.015 173.505 227.316 172.905 231.137 176.183C233.217 177.935 234.473 180.466 234.606 183.175C234.967 189.681 230.641 193.564 224.374 193.879C222.635 193.932 221.633 193.913 219.902 193.76C219.829 195.644 220.441 198.568 219.493 200.229C219.136 200.854 218.481 201.317 217.782 201.484C216.785 201.721 214.865 201.615 214.016 200.983C213.562 200.645 213.56 200.15 213.488 199.637C213.119 197.058 212.841 175.563 213.746 174.494C213.785 174.449 213.828 174.41 213.868 174.367C214.386 173.817 215.388 173.768 216.104 173.65ZM219.849 187.459C221.905 187.24 225.127 187.523 226.518 186.7L226.631 186.633C226.7 186.59 226.766 186.547 226.833 186.504C228.029 185.091 228.917 183.001 227.061 181.674C224.894 180.124 222.431 180.758 220.033 180.415C219.793 181.201 219.881 186.287 219.849 187.459Z" fill="#18262E"/>
<path d="M271.966 173.579C273.448 173.672 274.717 174.237 275.348 175.667C278.761 183.428 283.132 190.834 286.083 198.773C286.507 199.915 282.747 202.637 281.352 201.926C279.373 200.916 278.374 197.674 277.556 195.743L273.01 195.726C270.902 195.741 269.088 195.735 266.969 195.618C264.975 200.319 264.545 203.739 259.158 200.465C258.875 200.005 258.522 199.274 258.261 198.777C258.638 197.836 259.027 196.901 259.431 195.971C262.528 188.914 266.345 181.39 270.006 174.606C270.198 174.248 271.557 173.739 271.966 173.579ZM269.822 190.052C270.862 190.011 272.368 189.906 273.373 189.961L274.201 189.932C274.854 188.98 272.973 186.156 272.43 185.219L271.944 184.932C271.313 186.575 270.626 188.515 269.822 190.052Z" fill="#18262E"/>
<path d="M182.5 173.659C186.819 173.483 197.271 173.009 201.045 174.535C201.267 176.222 201.221 177.747 201.171 179.441C198.02 181.242 189.994 180.591 185.989 180.543C186.035 181.757 186.022 183.084 186.031 184.307C188.54 184.177 193.811 183.44 195.909 184.851C197.24 185.746 196.933 187.802 196.844 189.24C196.679 189.61 196.294 190.284 195.977 190.518C194.37 191.704 187.904 191.356 186.024 191.113C186.054 193.745 186.168 198.28 185.85 200.754C185.491 200.939 185.117 201.091 184.731 201.208C183.492 201.599 181.676 201.823 180.493 201.133C179.967 200.826 179.855 200.496 179.716 199.939C179.089 197.427 179.064 175.712 179.853 174.636C180.4 173.892 181.654 173.801 182.5 173.659Z" fill="#18262E"/>
<path d="M300.097 184.524C301.77 181.436 304.541 175.403 307.632 173.633C309.594 172.511 311.732 175.096 312.359 176.897C311.715 178.802 307.001 185.405 305.606 187.52C305.099 188.199 303.636 190.111 303.409 190.832C302.482 194.132 303.989 197.884 302.303 200.958C301.453 202.504 297.589 201.62 297.27 201.132C295.926 199.082 296.448 193.421 296.335 190.874C294.041 187.41 291.587 184.046 289.268 180.604C286.593 176.637 286.835 175.351 290.973 173.35C291.557 173.379 292.576 173.533 292.978 174.016C295.787 177.405 297.161 181.096 300.097 184.524Z" fill="#18262E"/>
<path d="M239.994 173.615C240.848 173.576 242.598 173.764 243.231 174.424C244.562 175.815 243.882 193.531 243.756 196.214C247.025 195.999 253.097 195.884 256.191 196.523C256.534 196.594 258.759 200.889 254.373 201.551C251.189 201.736 241.306 202.192 238.659 201.212C238.184 201.037 237.711 200.83 237.508 200.34C236.658 198.289 236.643 176.348 237.461 174.808C237.906 173.969 239.147 173.811 239.994 173.615Z" fill="#18262E"/>
</svg>
